<svg id="Layer_1" data-name="Layer 1" xmlns="http://www.w3.org/2000/svg" viewBox="0 0 689.99 689.88"><defs><style>.cls-1{fill:#387eb8;}.cls-2{fill:#ffc331;}</style></defs><title>python</title><path class="cls-1" d="M504,347.45H637.6c3.41,0,3.06.46,3.07-3.05q0-12.12,0-24.23c0-.56,0-1.12,0-1.68,0-.82-.4-1.14-1.19-1.11s-1.44,0-2.16,0H478.73c-3.62,0-3.12.39-3.13-3.24q0-35.14,0-70.29c0-2.13-.08-4.21,1-6.29.69-1.33.66-3.06,1.16-4.59a47.19,47.19,0,0,1,4.59-10.55c1.44-2.32,3.11-4.51,4.33-7,.54-1.1,1.64-1.64,2.35-2.58,2.64-3.48,6-6.29,9.08-9.34a30.56,30.56,0,0,1,2.74-2.19,123.46,123.46,0,0,1,13.43-9c3.55-2.09,7.36-3.55,10.91-5.55,3.08-1.74,6.47-2.69,9.68-4.07a47.54,47.54,0,0,1,6.74-2.13c1.21-.32,2.32-.91,3.49-1.31,2.85-1,5.8-1.54,8.67-2.37,1.93-.57,4-.9,6-1.39,2.44-.6,5.08-.47,7.33-1.82a1.32,1.32,0,0,1,.68-.21c2.76.14,5.36-.82,8-1.27,3.2-.53,6.52-.41,9.62-1.54a1.12,1.12,0,0,1,.48-.07c4,.19,7.92-.82,11.9-1.11,6.37-.44,12.8-.54,19.1-1.26,7.26-.83,14.47-.56,21.7-.71s14.46-.52,21.57.3c6.26.73,12.59,0,18.76,1.47a4.32,4.32,0,0,0,1.19.09c5-.25,9.83,1.15,14.79,1.18,2.91,1.29,6.11.88,9.15,1.48a68.34,68.34,0,0,0,8.71,1.36c.24,0,.53-.05.71.06,2.09,1.31,4.58,1.07,6.83,1.76,2,.61,4.17.89,6.24,1.42a100.13,100.13,0,0,1,11.42,3.1c3.3,1.25,6.69,2.23,10,3.53,3,1.18,5.93,2.41,8.84,3.75,2.49,1.15,5.07,2.1,7.49,3.44a15.33,15.33,0,0,1,2.33,1.16c2.71,2.2,6,3.42,8.77,5.57,3.15,2.47,6.52,4.67,9.42,7.46,1.2,1.15,2.38,2.31,3.7,3.35a25.74,25.74,0,0,1,3.13,3.58,80,80,0,0,1,8,11.4,49.69,49.69,0,0,1,4.72,11.27,22.19,22.19,0,0,1,1.3,7.24c-.32,11.43.62,22.83.63,34.25,0,11.6.11,23.19.24,34.79.39,36.07.19,72.13.2,108.2a59.5,59.5,0,0,1-.28,7.9c-.64,4.8-1.14,9.63-2.09,14.37a53.5,53.5,0,0,1-3.62,12c-2.26,4.84-4.32,9.79-7.56,14.17a95.43,95.43,0,0,1-6.79,8.45,63.69,63.69,0,0,1-11.09,9.14,52.43,52.43,0,0,1-8.76,4.93,75.75,75.75,0,0,1-9.8,3.9,137.62,137.62,0,0,1-13.92,2.92c-5.19.85-10.35.74-15.52.74q-89.61.07-179.22,0c-3.19,0-6.4-.13-9.46,1.08a2.8,2.8,0,0,1-1.19.12c-3.24-.29-6.34.72-9.44,1.27a97,97,0,0,0-9.61,2.39C512,504,506.08,507,500,509.4c-3.28,2.8-7.61,4-10.78,7a39.62,39.62,0,0,1-3.87,2.68c-5.67,4.19-10.5,9.27-15.22,14.42-2,2.15-3.5,4.82-5.34,7.12-2.62,3.29-4.34,7.06-6.6,10.52a48.64,48.64,0,0,0-3.26,6.78c-1.08,2.43-1.9,5-3,7.38s-1.36,5-2.3,7.46c-.83,2.18-.53,4.58-1.64,6.66a.91.91,0,0,0-.1.46c.14,3.06-1.36,5.93-1.1,9,.18,2.12-1,4-1,6.06.08,3.28-.07,6.56-.07,9.84q0,34.9,0,69.82c0,2.9.31,2.67-2.75,2.67q-35.51,0-71,0a38.44,38.44,0,0,1-10.06-1.67,40.6,40.6,0,0,1-8.16-3.1,71,71,0,0,1-14-9.43c-2.93-2.54-5.48-5.43-8.12-8.22A67.93,67.93,0,0,1,324,644.75c-1.6-2.49-3.13-5-4.56-7.61-1.74-3.16-3-6.53-4.68-9.73-2.37-4.64-3.85-9.59-5.6-14.45A126.48,126.48,0,0,1,305,599c-.48-2.06-.88-4.21-1.39-6.25-.57-2.27-.82-4.61-1.55-6.88a44,44,0,0,1-1.23-6.31c-.61-3.61-.8-7.28-1.7-10.85a1.84,1.84,0,0,1-.07-.47c-.07-3.28-.73-6.5-1-9.75-.63-7.24-.78-14.53-1.57-21.73-1-9.18-.72-18.35-.79-27.53,0-5.59-.41-11.21.41-16.77.78-5.32.44-10.71,1.1-16,.57-4.58.67-9.21,1.37-13.8.53-3.52.88-7.11,1.32-10.67.39-3.14,1-6.26,1.51-9.39.41-2.33,1-4.62,1.5-6.92a62.82,62.82,0,0,1,1.51-6.7c.57-1.71.62-3.55,1.21-5.31.88-2.61,1.07-5.49,2.19-8,1.89-4.16,2.94-8.59,4.65-12.8a147,147,0,0,1,7.16-15.3,112.6,112.6,0,0,1,8.43-13.17,89.2,89.2,0,0,1,7.78-8.89,65.36,65.36,0,0,1,14.07-11,54.28,54.28,0,0,1,9.45-4.46c1.85-.64,3.83-1,5.66-1.64,4.93-1.66,9.95-.91,14.91-.92Q441.93,347.39,504,347.45Zm76.72-104.66c.51-16.35-13.62-30.14-29.68-30.28-16.42-.14-30.22,13.82-30.36,29.73-.14,16.54,13.92,30.17,29.64,30.39C566.75,272.85,581,258.83,580.68,242.79Z" transform="translate(-295.57 -167.34)"/><path class="cls-2" d="M777.4,677.26H643.27c-2.78,0-2.6-.19-2.6,2.59V704.8c0,.48,0,1,0,1.44,0,.84.43,1.13,1.2,1.12s1.44,0,2.16,0H802.38c3.66,0,3.22-.42,3.22,3.16q0,35,0,70.06a39,39,0,0,1-1.69,10.5,37.31,37.31,0,0,1-3.1,8.35,73.38,73.38,0,0,1-9.47,14,90.16,90.16,0,0,1-13.61,12.37,119.66,119.66,0,0,1-11.5,7.33c-4.23,2.38-8.7,4.24-13.08,6.31a105.23,105.23,0,0,1-12.1,4.56c-3.34,1.11-6.62,2.58-10.07,3.23s-6.57,1.73-9.94,2.33c-2.22.39-4.57.51-6.69,1.49a.86.86,0,0,1-.46.12c-2.75-.26-5.25,1-7.9,1.41-3,.49-6.21.47-9.2,1.39a5.63,5.63,0,0,1-1.41.24c-2.56.11-5.07.56-7.6.82q-5.7.6-11.44,1c-16.35,1.28-32.73,1.19-49.12,1.08-7.84,0-15.63-.94-23.45-1.21a51,51,0,0,1-9.74-.92c-3.68-.86-7.43-.59-11.12-1.37a61.45,61.45,0,0,0-8.95-1.29c-2.21-.13-4.25-1-6.44-1.36a77.63,77.63,0,0,1-8.13-1.68c-2.06-.53-4.16-.84-6.21-1.42-1.81-.52-3.57-1.41-5.5-1.38-1.31,0-2.06-1.06-3.24-1.39a133.09,133.09,0,0,1-13-4.36,118.63,118.63,0,0,1-14.29-6.46c-3.55-2-7.25-3.79-10.46-6.37a53,53,0,0,0-5.18-3.64c-2.26-1.37-3.73-3.59-5.81-5.13-3.09-2.28-5.25-5.48-7.87-8.21-2-2.12-3.44-4.89-5-7.42a59.41,59.41,0,0,1-4.38-9.09,26.75,26.75,0,0,1-1.08-3.85c-.81-3-1.88-6-1.88-9.28q.12-89.39.07-178.75c0-2.48-.29-5,.18-7.42.87-4.45,1.19-9,2.24-13.38a69.51,69.51,0,0,1,7-18.21c1.87-3.3,4.22-6.28,6.27-9.45,2.17-3.35,5.22-5.87,7.88-8.74,1.78-1.93,4.22-3.25,6.34-4.86,3.77-2.86,8.14-4.71,12.29-6.87a19.37,19.37,0,0,1,6.65-2.28,17.58,17.58,0,0,0,3.58-1.13c2.14-.73,4.44-.48,6.48-1.45a6.33,6.33,0,0,1,2.13-.27c1.63-.16,3.34.14,4.86-.85a3.55,3.55,0,0,1,1.65-.15c3.2,0,6.4-.11,9.6-.11q90.09,0,180.19,0A124.36,124.36,0,0,0,747,526.25a77.29,77.29,0,0,0,12.09-2.36c3.5-1,6.87-2.23,10.29-3.38a78.17,78.17,0,0,0,9.57-4,63.44,63.44,0,0,0,9.5-5.16c3.55-2.58,7.24-5,10.6-7.85,2.83-2.41,5.55-4.95,8.1-7.6A97.72,97.72,0,0,0,816.21,485a130.22,130.22,0,0,0,9.08-15.39,47.08,47.08,0,0,0,3.44-8.48c.66-2.24,1.76-4.33,2.3-6.64.48-2.06,1.08-4.11,1.68-6.13.78-2.61.5-5.4,1.56-7.92a1.91,1.91,0,0,0,.14-.71c0-4.55,1.13-9,1.11-13.56-.1-25.2,0-50.39,0-75.58,0-3.58-.44-3.17,3.22-3.17,22.79,0,45.59,0,68.38,0a41.2,41.2,0,0,1,12.32,1.85,46.61,46.61,0,0,1,10.25,4.1,69.59,69.59,0,0,1,12.93,9.34,95,95,0,0,1,11.93,13.42,106.91,106.91,0,0,1,12.06,21.52c1.17,2.89,2.65,5.65,3.67,8.61.77,2.24,1.61,4.46,2.3,6.72a28.14,28.14,0,0,0,1.79,5.08,17.34,17.34,0,0,1,.95,3.88c.46,1.83,1,3.66,1.41,5.52a31.06,31.06,0,0,0,1.42,6,17.28,17.28,0,0,1,.75,4.45c.46,3.23,1.5,6.31,2,9.52s.43,6.85,1.58,10.11a1.31,1.31,0,0,1,.08.48c-.25,4,.75,7.92,1.16,11.87.86,8.34.6,16.75,1.67,25.07a19.21,19.21,0,0,1,.08,2.63c0,9.84.18,19.68-.06,29.51-.18,6.86-.65,13.72-1.06,20.57a75.84,75.84,0,0,1-.94,10.7c-.76,3.7-.65,7.44-1.38,11.13a66.89,66.89,0,0,0-1.28,9,6.22,6.22,0,0,1-.64,2.77,3.44,3.44,0,0,0-.52,1.58c0,2.51-.87,4.85-1.28,7.27a40.51,40.51,0,0,1-1.41,6.25,48.83,48.83,0,0,0-1.19,4.84c-.74,3.15-1.78,6.18-2.79,9.25-.72,2.16-1.39,4.33-2.11,6.5a80,80,0,0,1-3.88,9.56c-1.51,3.12-2.86,6.32-4.36,9.45-.53,1.11-1.33,2.11-1.93,3.2a88.73,88.73,0,0,1-14.5,19.59,68,68,0,0,1-13.51,11.08,52,52,0,0,1-12.8,5.75,48.28,48.28,0,0,1-12.9,1.75Q842.18,677.23,777.4,677.26ZM760.63,782.55c.51-16.29-13.67-30-29.59-30.19-16.48-.18-30.31,13.86-30.46,29.72-.16,16.49,14,30.35,29.93,30.42C746.71,812.57,761,798.65,760.63,782.55Z" transform="translate(-295.57 -167.34)"/></svg>